<?xml version="1.0" encoding="UTF-8"?>
<!-- Created with Inkscape (http://www.inkscape.org/) -->
<svg width="360.57" height="107.36" version="1.1" viewBox="0 0 360.57 107.36" xmlns="http://www.w3.org/2000/svg" xmlns:cc="http://creativecommons.org/ns#" xmlns:dc="http://purl.org/dc/elements/1.1/" xmlns:rdf="http://www.w3.org/1999/02/22-rdf-syntax-ns#">
 <metadata>
  <rdf:RDF>
   <cc:Work rdf:about="">
    <dc:format>image/svg+xml</dc:format>
    <dc:type rdf:resource="http://purl.org/dc/dcmitype/StillImage"/>
    <dc:title/>
   </cc:Work>
  </rdf:RDF>
 </metadata>
 <path d="m96.685 104.41c-1.0258-1.8031-4.0234-4.1269-7.75-6.0081-3.3424-1.6872-6.0771-3.2686-6.0771-3.5141s2.6947-1.9265 5.9881-3.7356c3.2935-1.8091 5.9935-3.6038 6-3.9883 7e-3 -0.38451-1.5141-1.863-3.3791-3.2855-3.2609-2.4872-3.539-2.5297-7.25-1.1087-2.1225 0.81277-10.384 2.6443-18.359 4.0701-26.856 4.8012-40.86 9.326-47.169 15.24-3.5116 3.2919-4.8313 2.2537-4.8313-3.8009 0-4.6889-0.3365-5.3279-6.0256-11.443-8.0415-8.644-10.582-15.066-4.342-10.978 4.3006 2.8179 7.5251 3.3124 11.839 1.8156 5.4373-1.8865 8.0465-4.5724 12.76-13.135 2.2304-4.0522 4.9783-7.6907 6.1503-8.1439 2.6786-1.0357 5.2543-3.919 10.476-11.727 4.8308-7.2235 5.0768-8.1467 1.5563-5.84-1.4227 0.9322-2.8625 1.4192-3.1995 1.0821-0.33703-0.33703-0.0097-3.1855 0.72733-6.3299 0.73706-3.1444 1.5427-7.8169 1.7904-10.383 0.38874-4.0283 0.15086-4.8264-1.7402-5.8385-1.6722-0.89495-2.0676-1.802-1.671-3.8338 0.36209-1.8549-0.13012-3.3593-1.6241-4.9642-1.8233-1.9585-1.9234-2.442-0.66989-3.2347 2.7786-1.7571 9.4808-1.0126 14.815 1.6458 5.5582 2.7698 16.158 11.799 16.158 13.764 0 0.64434-2.5036 4.9867-5.5635 9.6497-3.0599 4.663-6.497 10.278-7.6379 12.478-1.6098 3.1042-14.575 22.646-21.263 32.048-0.53055 0.74587-0.64338 1.6774-0.25075 2.07 0.39263 0.39264 6.6767-0.0301 13.965-0.9394 7.2879-0.90931 17.638-1.9259 22.999-2.2591 5.3617-0.33322 9.9471-0.92705 10.19-1.3196 0.79401-1.2847-3.8478-9.3064-8.1883-14.151-2.3375-2.6087-4.25-5.0535-4.25-5.4328 0-0.88072 19.755 9.5545 25.868 13.664 5.3832 3.6191 10.132 7.8402 10.132 9.0065 0 0.4471-1.35 0.81291-3 0.81291s-3 0.46583-3 1.0352c0 2.7212 7.4839 11.965 9.6871 11.965 1.842 0 1.6222 3.0199-0.44368 6.0955-2.7154 4.0426-9.8983 11.905-10.869 11.898-0.48066-3e-3 -1.6267-1.3295-2.5468-2.9467zm64.423-1.7801c-2.3375-0.21004-4.25-0.70271-4.25-1.0948s3.2971-1.7364 7.3269-2.9873c15.5-4.8113 27.568-15.59 37.885-33.838 11.196-19.802 11.516-21.437 4.994-25.524l-3.7057-2.3218 4.4024-0.31578c2.637-0.18915 6.6471 0.49027 10 1.6942 3.0787 1.1055 7.4842 2.2949 9.7901 2.6431 4.9951 0.7543 7.1565 2.7489 5.3446 4.9322-0.66434 0.80048-4.1389 3.163-7.7211 5.25-4.5368 2.6431-7.0755 4.8916-8.3662 7.4099-1.3698 2.6726-2.6959 3.7839-5.0857 4.2619-5.6893 1.1379-8.7874 5.7819-5.614 8.4151 0.6875 0.57047 4.625 1.6969 8.75 2.5033 5.3923 1.054 6.5164 1.5011 4 1.5908-7.2814 0.25956-10.802 1.9648-14.174 6.8662-1.7669 2.5681-4.7846 6.4093-6.7059 8.536-7.2903 8.0695-23.124 13.214-36.87 11.978zm103.99-2.4878c0.22383-0.6715 7.4716-4.4562 16.106-8.4105 21.445-9.8206 24.919-12.197 30.417-20.803 2.4828-3.8862 7.1109-10.666 10.285-15.066 5.5384-7.6781 11.952-19.104 11.952-21.293 0-0.57489 0.77905-2.4027 1.7312-4.0617 0.95218-1.6591 1.4597-3.288 1.1278-3.62s-3.9144 0.31404-7.9611 1.4354c-8.9299 2.4746-13.681 2.5798-16.832 0.37276-2.2687-1.589-2.4641-1.5608-4.2225 0.61078-1.0141 1.2523-1.843 2.5646-1.842 2.9161 9.8e-4 0.35157 2.0466 1.9311 4.5458 3.51s4.3983 3.0166 4.2201 3.1947c-0.17816 0.17815-2.1113-0.09048-4.2958-0.59697-6.4199-1.4884-7.2062-1.2289-13.329 4.4004-4.3651 4.0129-7.9317 6.1756-14.121 8.5625-7.6262 2.941-18.021 5.1215-18.021 3.7802 0-0.31179 2.5875-2.1412 5.75-4.0653 7.0249-4.2741 10.267-7.6893 13.191-13.896 2.0261-4.3009 2.5601-4.75 5.6484-4.75 3.9664 0 3.9039 0.24005 1.732-6.65-1.892-6.0021-1.4035-7.2672 2.085-5.4002 2.993 1.6018 4.1023 0.93408 6.6081-3.9778 2.7983-5.4851 2.5452-7.7551-1.0892-9.7685-6.6814-3.7015-6.7854-3.9214-2.6737-5.6523 4.4382-1.8683 9.4155-0.9733 19.408 3.4899 9.1242 4.0755 10.063 7.1495 3.9326 12.883-1.4255 1.3334-2.5918 2.9684-2.5918 3.6334 0 3.1709 14.402 1.9999 19.221-1.5629 5.5338-4.0914 7.535-4.2812 12.108-1.1486 2.294 1.5713 5.4021 3.605 6.907 4.5193 4.0492 2.4601 6.1112 6.1039 5.3066 9.3771-0.37279 1.5165-3.0879 5.0484-6.0336 7.8488-4.2363 4.0272-6.6244 7.6851-11.425 17.5-5.8853 12.032-15.033 25.909-17.079 25.909-0.55281 0-1.0051-1.05-1.0051-2.3333 0-4.5131-1.4258-3.6787-3.4524 2.0203-2.559 7.1964-4.7131 8.4589-13.8 8.0884-6.8346-0.2787-8.8233 0.48691-4.2478 1.6353 5.9751 1.4996 1.5326 3.1113-19.36 7.0238-10.283 1.9256-19.482 2.0934-18.899 0.34468zm-111.02-35.029c-1.5135-7.4911-2.5296-9.74-6.6039-14.617-1.9863-2.3774-3.6114-4.73-3.6114-5.228 0-3.3314 15.22 1.5504 20.573 6.5986 3.0343 2.8617 3.5102 3.9028 3.2418 7.0919-0.27575 3.2762-0.74685 3.8813-3.8146 4.8997-2.0939 0.69508-4.0241 2.235-4.8046 3.8332-2.0371 4.1714-3.8008 3.2581-4.9801-2.5787zm24.951-2.5c-0.49696-0.9625-1.2033-3.4114-1.5696-5.4419-0.4579-2.5382-2.2322-5.3168-5.6777-8.8916-2.7564-2.8598-4.8747-5.9235-4.7073-6.8081 0.64072-3.3858 13.69-1.8251 19.351 2.3143 1.5436 1.1287 1.6429 1.6238 0.58191 2.9022-1.0625 1.2802-0.92907 1.8914 0.78775 3.6082 1.1368 1.1368 2.0669 2.5465 2.0669 3.1327 0 2.9746-6.2982 10.934-8.6519 10.934-0.70275 0-1.6843-0.7875-2.1813-1.75z"/>
</svg>
